#!OML:ASF E:\Mandelcareful walks\Project 1\Capture day 1\Session 1\Subject1.ASF
:FULLY-SPECIFIED
:DEGREES
846
root -2.42457 14.1652 -2.42736 28.9579 51.4132 14.2793
lowerback 42.9113 4.30826 -3.54412
upperback 10.4614 5.89355 9.34639
thorax -10.0424 2.91587 9.36707
lowerneck -20.5201 -15.6267 -12.3087
upperneck 15.9203 -21.2082 15.4888
head 11.642 -8.88581 3.67341
rclavicle 3.49861e-014 -1.11319e-014
rhumerus 11.7093 -7.71555 -57.5165
rradius 68.7949
rwrist -55.6576
rhand -14.6503 -39.8624
rfingers 7.12502
rthumb 11.502 -69.5268
lclavicle 3.49861e-014 -1.11319e-014
lhumerus -24.4167 -22.919 81.3736
lradius 47.6708
lwrist 29.1438
lhand -26.1925 -14.209
lfingers 7.12502
lthumb 0.359817 15.7704
rfemur -67.8681 -9.32028 -3.77342
rtibia 68.6793
rfoot -14.0484 5.45027
rtoes -12.6739
lfemur -57.3393 40.6804 -31.5259
ltibia 77.9698
lfoot -30.8314 17.9669
ltoes -19.2528
847
root -2.40868 14.1221 -2.3389 28.5988 50.5847 14.4002
lowerback 43.4408 4.30279 -3.62962
upperback 10.5263 5.89231 9.63518
thorax -10.1782 2.9108 9.72496
lowerneck -20.6104 -15.6342 -12.5916
upperneck 15.9711 -21.0918 15.3219
head 11.6667 -8.86037 3.67594
rclavicle -6.36111e-014 4.92986e-014
rhumerus 12.6531 -8.19165 -57.5966
rradius 68.1694
rwrist -55.9395
rhand -14.5762 -40.1254
rfingers 7.12502
rthumb 11.5735 -69.7859
lclavicle -6.36111e-014 4.92986e-014
lhumerus -24.5145 -22.6593 81.8139
lradius 47.7595
lwrist 29.06
lhand -26.3986 -14.6541
lfingers 7.12502
lthumb 0.160791 15.3256
rfemur -68.2827 -8.94681 -3.75198
rtibia 70.0019
rfoot -14.6491 6.04451
rtoes -11.4103
lfemur -56.5786 41.5888 -31.0887
ltibia 78.5544
lfoot -31.2034 17.7939
ltoes -19.1482
848
root -2.4313 14.0602 -2.2495 29.0496 49.974 14.5822
lowerback 43.2554 4.0945 -3.54542
upperback 10.4603 5.67294 9.66066
thorax -10.1574 2.80956 9.82026
lowerneck -20.6634 -15.5807 -12.5772
upperneck 15.8419 -21.0188 15.4045
head 11.6276 -8.82186 3.71722
rclavicle -6.36111e-014 -1.59028e-015
rhumerus 13.7014 -8.92928 -58.5681
rradius 67.3841
rwrist -55.8204
rhand -14.5577 -40.4929
rfingers 7.12502
rthumb 11.5913 -70.1523
lclavicle -6.36111e-014 -1.59028e-015
lhumerus -24.519 -22.6822 81.7583
lradius 47.999
lwrist 29.2846
lhand -26.2306 -14.6534
lfingers 7.12502
lthumb 0.323023 15.3261
rfemur -69.6164 -8.83668 -3.57565
rtibia 71.3519
rfoot -15.0413 6.31179
rtoes -10.6546
lfemur -57.2344 42.1874 -31.282
ltibia 79.2421
lfoot -31.2467 17.6436
ltoes -18.9036
849
root -2.55673 13.9459 -2.14883 31.1292 49.7068 15.1464
lowerback 42.0519 4.21285 -4.15194
upperback 10.0502 5.59633 9.86386
thorax -10.3422 2.80229 10.446
lowerneck -20.959 -15.7265 -12.3337
upperneck 16.2139 -21.2898 15.2802
head 11.8151 -8.90493 3.55995
rclavicle -1.90833e-014 6.67916e-014
rhumerus 14.489 -10.0191 -59.6164
rradius 66.6016
rwrist -55.8495
rhand -14.7756 -40.7205
rfingers 7.12502
rthumb 11.3812 -70.3917
lclavicle -1.90833e-014 6.67916e-014
lhumerus -24.5688 -23.1721 81.6966
lradius 48.3488
lwrist 29.6654
lhand -26.1833 -14.6961
lfingers 7.12502
lthumb 0.368746 15.2833
rfemur -72.8938 -9.10602 -3.24066
rtibia 73.0457
rfoot -15.0147 6.03493
rtoes -9.9667
lfemur -60.7101 42.4425 -32.7759
ltibia 80.1921
lfoot -30.1634 17.836
ltoes -19.9259
850
root -2.54979 13.8907 -2.05747 30.9955 49.0359 15.0311
lowerback 42.4218 4.07691 -3.22738
upperback 9.76049 5.74974 9.563
thorax -10.6906 2.8584 9.5238
lowerneck -20.4717 -15.9139 -11.7099
upperneck 15.9734 -21.7476 15.322
head 11.6371 -9.10785 3.41046
rclavicle -6.04305e-014 6.36111e-014
rhumerus 14.5995 -11.7787 -60.4973
rradius 65.8696
rwrist -55.942
rhand -14.627 -40.5227
rfingers 7.12502
rthumb 11.5245 -70.1859
lclavicle -6.04305e-014 6.36111e-014
lhumerus -24.7101 -24.8853 81.6286
lradius 48.7295
lwrist 29.9447
lhand -26.9337 -14.7068
lfingers 7.12502
lthumb -0.356057 15.2727
rfemur -73.6456 -8.70276 -3.07887
rtibia 74.2489
rfoot -15.6758 6.4314
rtoes -9.04065
lfemur -60.694 43.2632 -32.528
ltibia 80.7578
lfoot -30.0447 18.0983
ltoes -21.4072
851
root -2.5468 13.8262 -1.9695 31.0076 48.6208 15.0263
lowerback 42.6498 3.63379 -3.33802
upperback 9.77546 5.26202 10.0735
thorax -10.7448 2.64438 10.3942
lowerneck -20.5699 -15.6033 -12.493
upperneck 15.99 -21.0462 15.1848
head 11.6279 -8.8493 3.62783
rclavicle -2.8625e-014 5.725e-014
rhumerus 16.3539 -11.1534 -60.8004
rradius 64.9573
rwrist -56.4422
rhand -14.434 -40.6241
rfingers 7.12502
rthumb 11.7106 -70.2768
lclavicle -2.8625e-014 5.725e-014
lhumerus -25.1438 -23.6017 82.3408
lradius 48.8925
lwrist 29.3883
lhand -27.2157 -14.7503
lfingers 7.12502
lthumb -0.628424 15.2285
rfemur -74.3747 -8.49657 -2.91828
rtibia 75.4634
rfoot -16.4186 6.75146
rtoes -8.31997
lfemur -60.6954 43.7358 -32.1544
ltibia 81.3311
lfoot -30.1288 18.0715
ltoes -21.9955
